# xmcd
#
# Track frame offsets: 
#        150
#        30267
#        48513
#        67308
#        107403
#        137756
#        156552
#        171781
#        191151
#        210677
#        240352
#        253270
#        286263
#        306298
#        333057
#
# Disc length: 4793 seconds
#
# Revision: 2
# Processed by: cddbd v1.5.2PL0 Copyright (c) Steve Scherf et al.
# Submitted via: ExactAudioCopy v0.99pb5
#
DISCID=da12b70f
DTITLE=Willy Chirino - En Vivo 35 Aniversario
DYEAR=2006
DGENRE=Salsa
TTITLE0=Yo Soy Un tipo Tipico
TTITLE1=Amigo de la Luna
TTITLE2=Cuba Linda
TTITLE3=Titti's Medley
TTITLE4=Medias Negras
TTITLE5=Todo Pasa
TTITLE6=Lagrimas Negras
TTITLE7=Hechizo de Luna
TTITLE8=Unidos
TTITLE9=Canto A La Habana
TTITLE10=Como Fue
TTITLE11=Descarga
TTITLE12=Soy Guajiro
TTITLE13=La Jinetera
TTITLE14=Nuestro Dia Ya Viene Llegando
EXTD=YEAR: 2006
EXTT0=
EXTT1=
EXTT2=
EXTT3=
EXTT4=
EXTT5=
EXTT6=
EXTT7=
EXTT8=
EXTT9=
EXTT10=
EXTT11=
EXTT12=
EXTT13=
EXTT14=
PLAYORDER=
